# xmcd
#
# Track frame offsets:
#	150
#	16684
#	31935
#	52394
#	69663
#	89791
#	107964
#	127162
#	149464
#	167257
#	181618
#	199531
#	213239
#	233253
#	247503
#	263680
#	279949
#	295327
#	309165
#
# Disc length: 4355 seconds
#
# Revision: 1
# Processed by: cddbd v1.5.1PL2 Copyright (c) Steve Scherf et al.
# Submitted via: EasyCDDAExtractor 9.0.0.1
#
DISCID=01110113
DTITLE=Various Artist - Black Top 2001 Dance Hits CD 2
DYEAR=2001
DGENRE=Blues
TTITLE0=Toni Braxton - Spanish Guitar
TTITLE1=Sisqo - Unleash The Dragon
TTITLE2=Melanie B. - Tell Me
TTITLE3=Destiny's Child - Jumpin Jumpin
TTITLE4=Gabrielle - Make You Wanna Holler
TTITLE5=R. Kelly - Bad Man
TTITLE6=Lil' Kim - No Matter What They Say
TTITLE7=Pink - Most Girls
TTITLE8=Craig David - 7 Days
TTITLE9=Macy Gray - Why Didn't You Call Me
TTITLE10=Wyclef Jean - It Doesn't Matter
TTITLE11=Warren G. - Havnin' Tonight
TTITLE12=Sasha - Chemichal Reaction
TTITLE13=JPX - Shipping Star
TTITLE14=De La Soul Ft Redman - Oooh
TTITLE15=Jack Radics - Always Around
TTITLE16=Da Rock - Fiesta Forever
TTITLE17=Black Rob - Whoa
TTITLE18=Attica Blues - Let It Out
EXTD=
EXTT0=
EXTT1=
EXTT2=
EXTT3=
EXTT4=
EXTT5=
EXTT6=
EXTT7=
EXTT8=
EXTT9=
EXTT10=
EXTT11=
EXTT12=
EXTT13=
EXTT14=
EXTT15=
EXTT16=
EXTT17=
EXTT18=
PLAYORDER=
